<?xml version="1.0" encoding="utf-8"?>
<svg viewBox="-250 -45 500 90" width="500" xmlns="http://www.w3.org/2000/svg">

<link rel="stylesheet" href="drawings.css" xmlns="http://www.w3.org/1999/xhtml"/>

<style>
	rect { rx:15 ; ry:15 }
	line { stroke-width : 1 ; marker-start : url(#dot) ; marker-end : url(#arrow) }
	</style>

<g id="markers">
	<marker id="arrow" viewBox="-2 -2 19 12" refX="15" refY="4" markerUnits="userSpaceOnUse" markerWidth="14" markerHeight="10" orient="auto-start-reverse">
		<path d="M 0 0 L 15 4 L 0 8 z"/>
		</marker>

	<marker id="dot" viewBox="-5 -5 10 10" refX="0" refY="0" markerUnits="userSpaceOnUse" markerWidth="10" markerHeight="10">
		<circle cx="0" cy="0" r="4" /> 
		</marker>

	</g>

<g class="peer" transform="translate( -200, 0 )">
	<rect x="-30" y="-25" width="60" height="50" />
	<text x="0" y="0">Peer A</text>
	<line x1="30" x2="70" y1="-10" y2="-10" />
	</g>

<g class="peer" transform="translate( -100, 0 )">
	<rect x="-30" y="-25" width="60" height="50" />
	<text x="0" y="0">NAT A</text>
	<line x1="30" x2="70" y1="-10" y2="-10" />
	<line x1="-30" x2="-70" y1="10" y2="10" />
	</g>

<g class="server" transform="translate( 0, 0 )">
	<rect x="-30" y="-35" width="60" height="70" />
	<text y="-20">Public</text>
	<text y="0">Relay</text>
	<text y="20">Server</text>
	<line x1="-30" x2="-70" y1="10" y2="10" />
	<line x1="30" x2="70" y1="-10" y2="-10" />
	</g>
	
<g class="peer" transform="translate( 100, 0 )">
	<rect x="-30" y="-25" width="60" height="50" />
	<text x="0" y="0">NAT B</text>
	<line x1="30" x2="70" y1="-10" y2="-10" />
	<line x1="-30" x2="-70" y1="10" y2="10" />
	</g>

<g class="peer" transform="translate( 200, 0 )">
	<rect x="-30" y="-25" width="60" height="50" />
	<text x="0" y="0">Peer B</text>
	<line x1="-30" x2="-70" y1="10" y2="10" />
	</g>

</svg>